<mxfile host="app.diagrams.net" agent="Mozilla/5.0 (Windows NT 10.0; Win64; x64) AppleWebKit/537.36 (KHTML, like Gecko) Chrome/136.0.0.0 Safari/537.36 Avast/136.0.0.0" version="27.1.4">
  <diagram name="Page-2" id="rOO9O7J9hSaqb0xkYFkz">
    <mxGraphModel dx="1042" dy="527" grid="1" gridSize="10" guides="1" tooltips="1" connect="1" arrows="1" fold="1" page="1" pageScale="1" pageWidth="827" pageHeight="1169" math="0" shadow="0">
      <root>
        <mxCell id="0" />
        <mxCell id="1" parent="0" />
        <mxCell id="AYb-isKz4nac1UMFXbAt-7" value="Baza podataka" style="shape=cylinder3;whiteSpace=wrap;html=1;boundedLbl=1;backgroundOutline=1;size=15;fillColor=#1ba1e2;fontColor=#ffffff;strokeColor=#006EAF;" parent="1" vertex="1">
          <mxGeometry x="740" y="500" width="80" height="110" as="geometry" />
        </mxCell>
        <mxCell id="AYb-isKz4nac1UMFXbAt-10" value="P5&lt;div&gt;ADMINISTRACIJA SUSTAVA:&lt;/div&gt;&lt;div&gt;Upravljanje pravima pristupa, upravljanje ulogama&lt;/div&gt;" style="rounded=1;whiteSpace=wrap;html=1;" parent="1" vertex="1">
          <mxGeometry x="475" y="620" width="160" height="90" as="geometry" />
        </mxCell>
        <mxCell id="kQvsUAxqQk1yLXYZwZs7-1" style="edgeStyle=orthogonalEdgeStyle;rounded=0;orthogonalLoop=1;jettySize=auto;html=1;exitX=0;exitY=0.75;exitDx=0;exitDy=0;entryX=1;entryY=0.75;entryDx=0;entryDy=0;" parent="1" source="AYb-isKz4nac1UMFXbAt-11" target="AYb-isKz4nac1UMFXbAt-18" edge="1">
          <mxGeometry relative="1" as="geometry">
            <Array as="points">
              <mxPoint x="470" y="545" />
            </Array>
          </mxGeometry>
        </mxCell>
        <mxCell id="kQvsUAxqQk1yLXYZwZs7-2" value="Isporuka narudzbe" style="edgeLabel;html=1;align=center;verticalAlign=middle;resizable=0;points=[];" parent="kQvsUAxqQk1yLXYZwZs7-1" vertex="1" connectable="0">
          <mxGeometry x="0.3216" y="-3" relative="1" as="geometry">
            <mxPoint x="44" as="offset" />
          </mxGeometry>
        </mxCell>
        <mxCell id="AYb-isKz4nac1UMFXbAt-11" value="&lt;div&gt;&amp;nbsp;P4&lt;/div&gt;&lt;div&gt;OBRADA ZAHTJEVA KUPACA:&lt;/div&gt;&lt;div&gt;Zaprimanje i obrada zahtjeva za kupnju vina&lt;/div&gt;" style="rounded=1;whiteSpace=wrap;html=1;" parent="1" vertex="1">
          <mxGeometry x="470" y="480" width="170" height="90" as="geometry" />
        </mxCell>
        <mxCell id="1DAzo3YN7i9run7a1Zh_-13" value="Pohrana&lt;div&gt;&amp;nbsp;i&amp;nbsp;&lt;span style=&quot;background-color: light-dark(#ffffff, var(--ge-dark-color, #121212)); color: light-dark(rgb(0, 0, 0), rgb(255, 255, 255));&quot;&gt;dohvat&amp;nbsp;&lt;/span&gt;&lt;div&gt;&lt;div&gt;podataka&lt;/div&gt;&lt;/div&gt;&lt;/div&gt;" style="edgeStyle=orthogonalEdgeStyle;rounded=0;orthogonalLoop=1;jettySize=auto;html=1;" parent="1" source="AYb-isKz4nac1UMFXbAt-12" target="AYb-isKz4nac1UMFXbAt-7" edge="1">
          <mxGeometry relative="1" as="geometry">
            <Array as="points">
              <mxPoint x="770" y="250" />
            </Array>
          </mxGeometry>
        </mxCell>
        <mxCell id="2_iROTSa1lZSY-p-BGl--7" style="edgeStyle=orthogonalEdgeStyle;rounded=0;orthogonalLoop=1;jettySize=auto;html=1;exitX=0.5;exitY=1;exitDx=0;exitDy=0;entryX=0.5;entryY=0;entryDx=0;entryDy=0;" parent="1" source="AYb-isKz4nac1UMFXbAt-12" target="2_iROTSa1lZSY-p-BGl--2" edge="1">
          <mxGeometry relative="1" as="geometry" />
        </mxCell>
        <mxCell id="AYb-isKz4nac1UMFXbAt-12" value="P2&lt;div&gt;&lt;br&gt;&lt;/div&gt;&lt;div&gt;EVIDENCIJA ZALIHA :&lt;/div&gt;&lt;div&gt;Prikaz i praćenje zaliha vina&amp;nbsp;&amp;nbsp;&lt;/div&gt;" style="rounded=1;whiteSpace=wrap;html=1;" parent="1" vertex="1">
          <mxGeometry x="470" y="200" width="170" height="80" as="geometry" />
        </mxCell>
        <mxCell id="AYb-isKz4nac1UMFXbAt-15" style="edgeStyle=orthogonalEdgeStyle;rounded=0;orthogonalLoop=1;jettySize=auto;html=1;exitX=0.5;exitY=1;exitDx=0;exitDy=0;" parent="1" source="AYb-isKz4nac1UMFXbAt-11" target="AYb-isKz4nac1UMFXbAt-11" edge="1">
          <mxGeometry relative="1" as="geometry" />
        </mxCell>
        <mxCell id="AYb-isKz4nac1UMFXbAt-16" value="DOBAVLJAČI" style="rounded=0;whiteSpace=wrap;html=1;" parent="1" vertex="1">
          <mxGeometry x="40" y="230" width="120" height="60" as="geometry" />
        </mxCell>
        <mxCell id="AYb-isKz4nac1UMFXbAt-17" value="ADMINISTRATORI" style="rounded=0;whiteSpace=wrap;html=1;" parent="1" vertex="1">
          <mxGeometry x="40" y="620" width="120" height="60" as="geometry" />
        </mxCell>
        <mxCell id="X2EJvij0L6XoEy5MmabA-5" value="Zahtjevi za narudzbu" style="edgeStyle=orthogonalEdgeStyle;rounded=0;orthogonalLoop=1;jettySize=auto;html=1;entryX=0;entryY=0.5;entryDx=0;entryDy=0;" parent="1" source="AYb-isKz4nac1UMFXbAt-18" target="AYb-isKz4nac1UMFXbAt-11" edge="1">
          <mxGeometry x="-0.0323" relative="1" as="geometry">
            <mxPoint x="470" y="440" as="targetPoint" />
            <Array as="points">
              <mxPoint x="150" y="525" />
            </Array>
            <mxPoint as="offset" />
          </mxGeometry>
        </mxCell>
        <mxCell id="AYb-isKz4nac1UMFXbAt-18" value="KUPCI" style="rounded=0;whiteSpace=wrap;html=1;" parent="1" vertex="1">
          <mxGeometry x="40" y="500" width="120" height="60" as="geometry" />
        </mxCell>
        <mxCell id="sZ5t43tfDt6ROwvAIZj8-11" value="Organizacija" style="edgeStyle=orthogonalEdgeStyle;rounded=0;orthogonalLoop=1;jettySize=auto;html=1;entryX=0;entryY=0.25;entryDx=0;entryDy=0;exitX=0;exitY=0.75;exitDx=0;exitDy=0;" parent="1" source="AYb-isKz4nac1UMFXbAt-19" target="2_iROTSa1lZSY-p-BGl--2" edge="1">
          <mxGeometry x="0.0659" y="1" relative="1" as="geometry">
            <Array as="points">
              <mxPoint x="40" y="110" />
              <mxPoint x="20" y="110" />
              <mxPoint x="20" y="363" />
              <mxPoint x="440" y="363" />
            </Array>
            <mxPoint x="470" y="220" as="targetPoint" />
            <mxPoint y="1" as="offset" />
          </mxGeometry>
        </mxCell>
        <mxCell id="AYb-isKz4nac1UMFXbAt-19" value="DJELATNICI" style="rounded=0;whiteSpace=wrap;html=1;" parent="1" vertex="1">
          <mxGeometry x="40" y="70" width="120" height="60" as="geometry" />
        </mxCell>
        <mxCell id="1DAzo3YN7i9run7a1Zh_-17" value="" style="edgeStyle=orthogonalEdgeStyle;rounded=0;orthogonalLoop=1;jettySize=auto;html=1;" parent="1" source="AYb-isKz4nac1UMFXbAt-21" target="AYb-isKz4nac1UMFXbAt-12" edge="1">
          <mxGeometry relative="1" as="geometry" />
        </mxCell>
        <mxCell id="2_iROTSa1lZSY-p-BGl--8" style="edgeStyle=orthogonalEdgeStyle;rounded=0;orthogonalLoop=1;jettySize=auto;html=1;exitX=1;exitY=0.5;exitDx=0;exitDy=0;" parent="1" source="AYb-isKz4nac1UMFXbAt-21" edge="1">
          <mxGeometry relative="1" as="geometry">
            <mxPoint x="660" y="85" as="sourcePoint" />
            <mxPoint x="800" y="500" as="targetPoint" />
          </mxGeometry>
        </mxCell>
        <mxCell id="AYb-isKz4nac1UMFXbAt-21" value="P1&lt;div&gt;&lt;span style=&quot;background-color: transparent; color: light-dark(rgb(0, 0, 0), rgb(255, 255, 255));&quot;&gt;UPRAVLJANJE KORISNICIMA:&lt;/span&gt;&lt;/div&gt;&lt;div&gt;Registracija, evidencija korisnika i uredjivanje podataka&lt;/div&gt;" style="rounded=1;whiteSpace=wrap;html=1;" parent="1" vertex="1">
          <mxGeometry x="470" y="40" width="170" height="90" as="geometry" />
        </mxCell>
        <mxCell id="1DAzo3YN7i9run7a1Zh_-14" value="" style="edgeStyle=orthogonalEdgeStyle;rounded=0;orthogonalLoop=1;jettySize=auto;html=1;entryX=0;entryY=0;entryDx=0;entryDy=15;entryPerimeter=0;" parent="1" source="AYb-isKz4nac1UMFXbAt-11" target="AYb-isKz4nac1UMFXbAt-7" edge="1">
          <mxGeometry relative="1" as="geometry" />
        </mxCell>
        <mxCell id="1DAzo3YN7i9run7a1Zh_-15" style="edgeStyle=orthogonalEdgeStyle;rounded=0;orthogonalLoop=1;jettySize=auto;html=1;entryX=0;entryY=0.5;entryDx=0;entryDy=0;entryPerimeter=0;" parent="1" source="AYb-isKz4nac1UMFXbAt-10" target="AYb-isKz4nac1UMFXbAt-7" edge="1">
          <mxGeometry relative="1" as="geometry">
            <Array as="points">
              <mxPoint x="690" y="660" />
              <mxPoint x="690" y="555" />
            </Array>
          </mxGeometry>
        </mxCell>
        <mxCell id="ykCZ91Tiy0JVU6pRaTfl-7" value="Azurirani&lt;div&gt;pristupi&amp;nbsp;&lt;/div&gt;&lt;div&gt;i ovlasti&lt;/div&gt;" style="edgeLabel;html=1;align=center;verticalAlign=middle;resizable=0;points=[];" parent="1DAzo3YN7i9run7a1Zh_-15" vertex="1" connectable="0">
          <mxGeometry x="-0.13" y="2" relative="1" as="geometry">
            <mxPoint as="offset" />
          </mxGeometry>
        </mxCell>
        <mxCell id="X2EJvij0L6XoEy5MmabA-3" value="Pregled korisnika" style="edgeStyle=orthogonalEdgeStyle;rounded=0;orthogonalLoop=1;jettySize=auto;html=1;" parent="1" source="AYb-isKz4nac1UMFXbAt-19" edge="1">
          <mxGeometry relative="1" as="geometry">
            <Array as="points">
              <mxPoint x="230" y="100" />
              <mxPoint x="230" y="100" />
            </Array>
            <mxPoint x="470" y="100" as="targetPoint" />
          </mxGeometry>
        </mxCell>
        <mxCell id="sZ5t43tfDt6ROwvAIZj8-9" value="Upravljanje sustavom i pristupima" style="endArrow=classic;html=1;rounded=0;exitX=1;exitY=0.25;exitDx=0;exitDy=0;entryX=0;entryY=0.25;entryDx=0;entryDy=0;" parent="1" source="AYb-isKz4nac1UMFXbAt-17" target="AYb-isKz4nac1UMFXbAt-10" edge="1">
          <mxGeometry width="50" height="50" relative="1" as="geometry">
            <mxPoint x="390" y="430" as="sourcePoint" />
            <mxPoint x="470" y="555" as="targetPoint" />
          </mxGeometry>
        </mxCell>
        <mxCell id="sZ5t43tfDt6ROwvAIZj8-10" value="Potvrde o uspjesnim promjenama u sustavu" style="endArrow=classic;html=1;rounded=0;exitX=-0.025;exitY=0.629;exitDx=0;exitDy=0;entryX=1;entryY=0.86;entryDx=0;entryDy=0;exitPerimeter=0;entryPerimeter=0;" parent="1" source="AYb-isKz4nac1UMFXbAt-10" target="AYb-isKz4nac1UMFXbAt-17" edge="1">
          <mxGeometry width="50" height="50" relative="1" as="geometry">
            <mxPoint x="390" y="430" as="sourcePoint" />
            <mxPoint x="160" y="595" as="targetPoint" />
          </mxGeometry>
        </mxCell>
        <mxCell id="ykCZ91Tiy0JVU6pRaTfl-1" value="" style="endArrow=none;html=1;rounded=0;exitX=0;exitY=0.25;exitDx=0;exitDy=0;entryX=1;entryY=0.25;entryDx=0;entryDy=0;" parent="1" source="AYb-isKz4nac1UMFXbAt-21" target="AYb-isKz4nac1UMFXbAt-21" edge="1">
          <mxGeometry width="50" height="50" relative="1" as="geometry">
            <mxPoint x="390" y="300" as="sourcePoint" />
            <mxPoint x="440" y="250" as="targetPoint" />
            <Array as="points" />
          </mxGeometry>
        </mxCell>
        <mxCell id="ykCZ91Tiy0JVU6pRaTfl-3" value="" style="endArrow=none;html=1;rounded=0;exitX=0.014;exitY=0.425;exitDx=0;exitDy=0;entryX=0.993;entryY=0.405;entryDx=0;entryDy=0;exitPerimeter=0;entryPerimeter=0;" parent="1" source="AYb-isKz4nac1UMFXbAt-12" target="AYb-isKz4nac1UMFXbAt-12" edge="1">
          <mxGeometry width="50" height="50" relative="1" as="geometry">
            <mxPoint x="390" y="300" as="sourcePoint" />
            <mxPoint x="440" y="250" as="targetPoint" />
          </mxGeometry>
        </mxCell>
        <mxCell id="ykCZ91Tiy0JVU6pRaTfl-5" value="" style="endArrow=none;html=1;rounded=0;exitX=0;exitY=0.25;exitDx=0;exitDy=0;entryX=1;entryY=0.25;entryDx=0;entryDy=0;" parent="1" source="AYb-isKz4nac1UMFXbAt-11" target="AYb-isKz4nac1UMFXbAt-11" edge="1">
          <mxGeometry width="50" height="50" relative="1" as="geometry">
            <mxPoint x="390" y="410" as="sourcePoint" />
            <mxPoint x="440" y="360" as="targetPoint" />
          </mxGeometry>
        </mxCell>
        <mxCell id="ykCZ91Tiy0JVU6pRaTfl-6" value="" style="endArrow=none;html=1;rounded=0;exitX=0;exitY=0.25;exitDx=0;exitDy=0;entryX=1;entryY=0.25;entryDx=0;entryDy=0;" parent="1" source="AYb-isKz4nac1UMFXbAt-10" target="AYb-isKz4nac1UMFXbAt-10" edge="1">
          <mxGeometry width="50" height="50" relative="1" as="geometry">
            <mxPoint x="390" y="410" as="sourcePoint" />
            <mxPoint x="440" y="360" as="targetPoint" />
          </mxGeometry>
        </mxCell>
        <mxCell id="ykCZ91Tiy0JVU6pRaTfl-8" value="" style="endArrow=classic;html=1;rounded=0;exitX=1;exitY=0.75;exitDx=0;exitDy=0;entryX=0.005;entryY=0.913;entryDx=0;entryDy=0;entryPerimeter=0;" parent="1" source="AYb-isKz4nac1UMFXbAt-16" target="AYb-isKz4nac1UMFXbAt-12" edge="1">
          <mxGeometry width="50" height="50" relative="1" as="geometry">
            <mxPoint x="390" y="380" as="sourcePoint" />
            <mxPoint x="440" y="330" as="targetPoint" />
          </mxGeometry>
        </mxCell>
        <mxCell id="ykCZ91Tiy0JVU6pRaTfl-12" value="Isporuka vina" style="edgeLabel;html=1;align=center;verticalAlign=middle;resizable=0;points=[];" parent="ykCZ91Tiy0JVU6pRaTfl-8" vertex="1" connectable="0">
          <mxGeometry x="-0.6211" y="1" relative="1" as="geometry">
            <mxPoint x="51" y="3" as="offset" />
          </mxGeometry>
        </mxCell>
        <mxCell id="ykCZ91Tiy0JVU6pRaTfl-9" value="" style="endArrow=classic;html=1;rounded=0;exitX=-0.009;exitY=0.665;exitDx=0;exitDy=0;entryX=1.01;entryY=0.373;entryDx=0;entryDy=0;entryPerimeter=0;exitPerimeter=0;" parent="1" source="AYb-isKz4nac1UMFXbAt-12" target="AYb-isKz4nac1UMFXbAt-16" edge="1">
          <mxGeometry width="50" height="50" relative="1" as="geometry">
            <mxPoint x="390" y="380" as="sourcePoint" />
            <mxPoint x="440" y="330" as="targetPoint" />
            <Array as="points" />
          </mxGeometry>
        </mxCell>
        <mxCell id="ykCZ91Tiy0JVU6pRaTfl-11" value="Zahtjevi za isporuku" style="edgeLabel;html=1;align=center;verticalAlign=middle;resizable=0;points=[];" parent="ykCZ91Tiy0JVU6pRaTfl-9" vertex="1" connectable="0">
          <mxGeometry x="0.4766" y="1" relative="1" as="geometry">
            <mxPoint x="29" y="-3" as="offset" />
          </mxGeometry>
        </mxCell>
        <mxCell id="2_iROTSa1lZSY-p-BGl--6" style="edgeStyle=orthogonalEdgeStyle;rounded=0;orthogonalLoop=1;jettySize=auto;html=1;exitX=0.5;exitY=1;exitDx=0;exitDy=0;entryX=0.5;entryY=0;entryDx=0;entryDy=0;" parent="1" source="2_iROTSa1lZSY-p-BGl--2" target="AYb-isKz4nac1UMFXbAt-11" edge="1">
          <mxGeometry relative="1" as="geometry" />
        </mxCell>
        <mxCell id="2_iROTSa1lZSY-p-BGl--2" value="P3&lt;div&gt;&lt;br&gt;&lt;div&gt;ORGANIZACIJA DOGADJAJA:&lt;/div&gt;&lt;div&gt;organizacija&amp;nbsp; i pracenje prijava kupaca na dogadjaje&lt;/div&gt;&lt;/div&gt;" style="rounded=1;whiteSpace=wrap;html=1;" parent="1" vertex="1">
          <mxGeometry x="470" y="340" width="170" height="90" as="geometry" />
        </mxCell>
        <mxCell id="2_iROTSa1lZSY-p-BGl--3" value="" style="endArrow=none;html=1;rounded=0;exitX=0;exitY=0.25;exitDx=0;exitDy=0;entryX=1;entryY=0.25;entryDx=0;entryDy=0;" parent="1" source="2_iROTSa1lZSY-p-BGl--2" target="2_iROTSa1lZSY-p-BGl--2" edge="1">
          <mxGeometry width="50" height="50" relative="1" as="geometry">
            <mxPoint x="390" y="470" as="sourcePoint" />
            <mxPoint x="440" y="420" as="targetPoint" />
          </mxGeometry>
        </mxCell>
        <mxCell id="2_iROTSa1lZSY-p-BGl--5" style="edgeStyle=orthogonalEdgeStyle;rounded=0;orthogonalLoop=1;jettySize=auto;html=1;exitX=0.5;exitY=1;exitDx=0;exitDy=0;entryX=0.545;entryY=0.016;entryDx=0;entryDy=0;entryPerimeter=0;" parent="1" source="AYb-isKz4nac1UMFXbAt-11" target="AYb-isKz4nac1UMFXbAt-10" edge="1">
          <mxGeometry relative="1" as="geometry">
            <Array as="points">
              <mxPoint x="562" y="570" />
            </Array>
          </mxGeometry>
        </mxCell>
        <mxCell id="2_iROTSa1lZSY-p-BGl--15" value="" style="endArrow=classic;html=1;rounded=0;exitX=1;exitY=0;exitDx=0;exitDy=0;entryX=0;entryY=1;entryDx=0;entryDy=0;" parent="1" source="AYb-isKz4nac1UMFXbAt-18" target="AYb-isKz4nac1UMFXbAt-21" edge="1">
          <mxGeometry width="50" height="50" relative="1" as="geometry">
            <mxPoint x="390" y="340" as="sourcePoint" />
            <mxPoint x="440" y="290" as="targetPoint" />
          </mxGeometry>
        </mxCell>
        <mxCell id="2_iROTSa1lZSY-p-BGl--16" value="Registracija" style="edgeLabel;html=1;align=center;verticalAlign=middle;resizable=0;points=[];" parent="2_iROTSa1lZSY-p-BGl--15" vertex="1" connectable="0">
          <mxGeometry x="-0.7494" y="2" relative="1" as="geometry">
            <mxPoint x="1" as="offset" />
          </mxGeometry>
        </mxCell>
        <mxCell id="JDO8_jYlapjYQGS1jHot-1" value="" style="endArrow=classic;html=1;rounded=0;exitX=1;exitY=1;exitDx=0;exitDy=0;entryX=0;entryY=0.25;entryDx=0;entryDy=0;" parent="1" source="AYb-isKz4nac1UMFXbAt-19" target="AYb-isKz4nac1UMFXbAt-12" edge="1">
          <mxGeometry width="50" height="50" relative="1" as="geometry">
            <mxPoint x="390" y="300" as="sourcePoint" />
            <mxPoint x="440" y="250" as="targetPoint" />
          </mxGeometry>
        </mxCell>
        <mxCell id="JDO8_jYlapjYQGS1jHot-3" value="Upravljanje" style="edgeLabel;html=1;align=center;verticalAlign=middle;resizable=0;points=[];" parent="JDO8_jYlapjYQGS1jHot-1" vertex="1" connectable="0">
          <mxGeometry x="-0.537" y="-1" relative="1" as="geometry">
            <mxPoint x="38" y="8" as="offset" />
          </mxGeometry>
        </mxCell>
        <mxCell id="j1qpvT-zS04-1VIsWefI-2" value="" style="endArrow=classic;html=1;rounded=0;exitX=1;exitY=0.25;exitDx=0;exitDy=0;entryX=0;entryY=0.75;entryDx=0;entryDy=0;" parent="1" source="AYb-isKz4nac1UMFXbAt-18" target="2_iROTSa1lZSY-p-BGl--2" edge="1">
          <mxGeometry width="50" height="50" relative="1" as="geometry">
            <mxPoint x="390" y="470" as="sourcePoint" />
            <mxPoint x="440" y="420" as="targetPoint" />
          </mxGeometry>
        </mxCell>
        <mxCell id="j1qpvT-zS04-1VIsWefI-3" value="Prijava na&lt;div&gt;&amp;nbsp;dogadjaje&amp;nbsp;&lt;/div&gt;" style="edgeLabel;html=1;align=center;verticalAlign=middle;resizable=0;points=[];" parent="j1qpvT-zS04-1VIsWefI-2" vertex="1" connectable="0">
          <mxGeometry x="-0.0101" y="3" relative="1" as="geometry">
            <mxPoint as="offset" />
          </mxGeometry>
        </mxCell>
        <mxCell id="BXiY5SKQpWcI5yTYuVvT-3" style="edgeStyle=orthogonalEdgeStyle;rounded=0;orthogonalLoop=1;jettySize=auto;html=1;exitX=0.25;exitY=1;exitDx=0;exitDy=0;entryX=-0.005;entryY=0.156;entryDx=0;entryDy=0;entryPerimeter=0;" parent="1" source="AYb-isKz4nac1UMFXbAt-12" target="AYb-isKz4nac1UMFXbAt-11" edge="1">
          <mxGeometry relative="1" as="geometry">
            <Array as="points">
              <mxPoint x="513" y="300" />
              <mxPoint x="430" y="300" />
              <mxPoint x="430" y="494" />
            </Array>
          </mxGeometry>
        </mxCell>
        <mxCell id="XvGjZKFM-QUv2mKngNi--1" style="edgeStyle=orthogonalEdgeStyle;rounded=0;orthogonalLoop=1;jettySize=auto;html=1;exitX=1;exitY=0.5;exitDx=0;exitDy=0;entryX=0.145;entryY=0;entryDx=0;entryDy=4.35;entryPerimeter=0;" parent="1" source="2_iROTSa1lZSY-p-BGl--2" target="AYb-isKz4nac1UMFXbAt-7" edge="1">
          <mxGeometry relative="1" as="geometry" />
        </mxCell>
      </root>
    </mxGraphModel>
  </diagram>
</mxfile>
